<svg id="visual" viewBox="0 0 900 600" width="900" height="600" xmlns="http://www.w3.org/2000/svg" xmlns:xlink="http://www.w3.org/1999/xlink" version="1.1"><rect x="0" y="0" width="900" height="600" fill="#cc85db"></rect><path d="M0 253L21.5 248.7C43 244.3 86 235.7 128.8 244.8C171.7 254 214.3 281 257.2 293.3C300 305.7 343 303.3 385.8 285C428.7 266.7 471.3 232.3 514.2 221.5C557 210.7 600 223.3 642.8 221.5C685.7 219.7 728.3 203.3 771.2 208.7C814 214 857 241 878.5 254.5L900 268L900 601L878.5 601C857 601 814 601 771.2 601C728.3 601 685.7 601 642.8 601C600 601 557 601 514.2 601C471.3 601 428.7 601 385.8 601C343 601 300 601 257.2 601C214.3 601 171.7 601 128.8 601C86 601 43 601 21.5 601L0 601Z" fill="#fa7268"></path><path d="M0 291L21.5 288.2C43 285.3 86 279.7 128.8 286C171.7 292.3 214.3 310.7 257.2 315.3C300 320 343 311 385.8 313.2C428.7 315.3 471.3 328.7 514.2 324C557 319.3 600 296.7 642.8 303.5C685.7 310.3 728.3 346.7 771.2 348C814 349.3 857 315.7 878.5 298.8L900 282L900 601L878.5 601C857 601 814 601 771.2 601C728.3 601 685.7 601 642.8 601C600 601 557 601 514.2 601C471.3 601 428.7 601 385.8 601C343 601 300 601 257.2 601C214.3 601 171.7 601 128.8 601C86 601 43 601 21.5 601L0 601Z" fill="#ef5f67"></path><path d="M0 368L21.5 377.3C43 386.7 86 405.3 128.8 398C171.7 390.7 214.3 357.3 257.2 351.5C300 345.7 343 367.3 385.8 384C428.7 400.7 471.3 412.3 514.2 413.7C557 415 600 406 642.8 389C685.7 372 728.3 347 771.2 348.2C814 349.3 857 376.7 878.5 390.3L900 404L900 601L878.5 601C857 601 814 601 771.2 601C728.3 601 685.7 601 642.8 601C600 601 557 601 514.2 601C471.3 601 428.7 601 385.8 601C343 601 300 601 257.2 601C214.3 601 171.7 601 128.8 601C86 601 43 601 21.5 601L0 601Z" fill="#e34c67"></path><path d="M0 418L21.5 418.5C43 419 86 420 128.8 425.3C171.7 430.7 214.3 440.3 257.2 441.7C300 443 343 436 385.8 434.3C428.7 432.7 471.3 436.3 514.2 438.2C557 440 600 440 642.8 434.5C685.7 429 728.3 418 771.2 415C814 412 857 417 878.5 419.5L900 422L900 601L878.5 601C857 601 814 601 771.2 601C728.3 601 685.7 601 642.8 601C600 601 557 601 514.2 601C471.3 601 428.7 601 385.8 601C343 601 300 601 257.2 601C214.3 601 171.7 601 128.8 601C86 601 43 601 21.5 601L0 601Z" fill="#d53867"></path><path d="M0 509L21.5 503.2C43 497.3 86 485.7 128.8 480.7C171.7 475.7 214.3 477.3 257.2 479.2C300 481 343 483 385.8 484.5C428.7 486 471.3 487 514.2 487.2C557 487.3 600 486.7 642.8 495C685.7 503.3 728.3 520.7 771.2 531.2C814 541.7 857 545.3 878.5 547.2L900 549L900 601L878.5 601C857 601 814 601 771.2 601C728.3 601 685.7 601 642.8 601C600 601 557 601 514.2 601C471.3 601 428.7 601 385.8 601C343 601 300 601 257.2 601C214.3 601 171.7 601 128.8 601C86 601 43 601 21.5 601L0 601Z" fill="#c62368"></path></svg>